<svg height="418pt" viewBox="0 -49 418.61221 418" width="418pt" xmlns="http://www.w3.org/2000/svg"><path d="m417.761719 311.03125-130.328125-236.097656 12.453125-31.132813c1.398437-3.503906-.304688-7.472656-3.804688-8.875-3.523437-1.394531-7.476562.304688-8.878906 3.804688l-8.539063 21.355469-13.398437-22.332032c-1.941406-3.234375-6.136719-4.28125-9.367187-2.339844-3.234376 1.941407-4.28125 6.132813-2.339844 9.367188l18.457031 30.761719-129.992187 235.488281c-1.167969 2.117188-1.132813 4.691406.097656 6.769531 1.230468 2.082031 3.460937 3.359375 5.878906 3.359375h263.785156c2.417969 0 4.648438-1.277344 5.878906-3.359375 1.230469-2.078125 1.265626-4.652343.097657-6.769531zm-73.101563-9.542969-53.644531-97.1875c4.269531-1 8.628906-1.515625 13.039063-1.515625 31.847656 0 57.757812 25.914063 57.757812 57.757813 0 15.425781-6.296875 30.171875-17.152344 40.945312zm-64.769531-211.960937 60.480469 109.566406c-10.648438-6.320312-23.0625-9.960938-36.316406-9.960938-7.1875 0-14.261719 1.09375-21.113282 3.226563-3.109375-1.382813-7.300781-.515625-9.027344 2.621094l-62.113281 112.527343h-52.234375zm-52.492187 217.980468 52.496093-95.101562 52.492188 95.101562zm130.332031 0c10.84375-12.402343 17.199219-28.304687 17.675781-44.953124l24.8125 44.953124zm0 0"/><path d="m186 169.496094 29.867188-23.664063c1.621093-1.285156 2.574218-3.242187 2.585937-5.316406s-.921875-4.039063-2.535156-5.34375l-29.867188-24.121094c-1.214843-.980469-2.730469-1.519531-4.289062-1.519531h-58.882813v-13.652344h75.09375c3.769532 0 6.828125-3.054687 6.828125-6.824218v-47.789063c0-3.769531-3.058593-6.828125-6.828125-6.828125h-75.09375v-27.304688c0-3.769531-3.054687-6.828124-6.824218-6.828124-3.769532 0-6.828126 3.058593-6.828126 6.828124v27.304688h-72.53125c-1.542968 0-3.035156.523438-4.242187 1.476562l-29.867187 23.664063c-1.621094 1.289063-2.5742192 3.242187-2.585938 5.316406-.0117188 2.078125.921875 4.039063 2.535156 5.34375l29.867188 24.125c1.214844.980469 2.730468 1.515625 4.292968 1.515625h72.53125v218.453125c0 3.769531 3.058594 6.828125 6.828126 6.828125 3.769531 0 6.824218-3.058594 6.824218-6.828125v-143.359375h58.882813c1.539062 0 3.03125-.519531 4.238281-1.476562zm-168.246094-104.515625 21.316406-16.886719h152.074219v34.132812h-152.039062zm105.125 92.339843v-34.132812h56.464844l21.355469 17.246094-21.316407 16.886718zm0 0"/></svg>