<svg id="Capa_1" enable-background="new 0 0 511.999 511.999" height="512" viewBox="0 0 511.999 511.999" width="512" xmlns="http://www.w3.org/2000/svg"><g><path d="m453.003 188.575v13.206c0 18.962-15.371 34.343-34.343 34.343h-14.237c-13.505 0-24.899 10.666-25.111 24.169-.109 6.95 2.661 13.238 7.19 17.777 4.453 4.443 10.589 7.193 17.372 7.193 10.168 0 19.383 4.125 26.052 10.794 6.67 6.67 10.795 15.874 10.795 26.052v12.58c0 23.206-18.812 42.018-42.018 42.018h-31.686c-9.04 0-16.376 7.326-16.376 16.376 0 4.525 1.837 8.609 4.802 11.574s7.049 4.802 11.574 4.802h22.753c9.827 0 18.133 7.795 18.198 17.622.033 4.952-1.964 9.431-5.192 12.668-3.212 3.212-7.655 5.202-12.549 5.202-5.654 0-10.774 2.288-14.478 5.992-3.714 3.704-6.003 8.824-6.003 14.478v26.841c0 10.63-8.411 19.625-19.04 19.732-5.394.054-10.273-2.111-13.805-5.632-3.478-3.489-5.633-8.301-5.633-13.606v-45.076c-11.605 0-22.123-4.71-29.736-12.313-7.604-7.614-12.313-18.121-12.313-29.736v-15.278h-22.482c-16.978 0-30.742 13.763-30.742 30.742v26.068c0 12.771-10.101 23.539-22.87 23.716-6.544.091-12.468-2.522-16.737-6.801-4.207-4.197-6.803-9.994-6.803-16.397 0-3.776-1.529-7.183-3.991-9.656-2.473-2.473-5.89-4.002-9.656-4.002-4.894 0-9.337-1.98-12.549-5.192-3.201-3.212-5.192-7.644-5.192-12.549v-15.012c0-41.454-33.615-75.069-75.069-75.069-5.654 0-10.774 2.288-14.478 5.992s-5.992 8.824-5.992 14.478 2.288 10.774 5.992 14.478 8.824 6.003 14.478 6.003h2.729c12.057 0 21.835 9.768 21.835 21.835 0 6.033-2.442 11.492-6.393 15.443-3.95 3.95-9.409 6.393-15.443 6.393h-52.904c-17.466 0-31.624-14.159-31.624-31.624v-76.745c0-13.096 10.488-24.191 23.582-24.018 4.425.058 8.427-1.707 11.305-4.596 2.842-2.842 4.597-6.772 4.597-11.102s-1.755-8.26-4.597-11.102c-2.832-2.842-6.752-4.597-11.092-4.597h-4.689c-10.552 0-19.106-8.554-19.106-19.106 0-10.552 8.554-19.106 19.106-19.106h15.607c10.552 0 19.106 8.554 19.106 19.106 0 9.424 7.64 17.064 17.064 17.064h1.021c9.988 0 18.085-8.097 18.085-18.085v-55.372c0-25.389 20.581-45.97 45.97-45.97h89.156c0-24.878 20.167-45.045 45.045-45.045h49.55c17.103 0 30.967-13.865 30.967-30.967v-18.118c0-17.364 14.076-31.44 31.44-31.44h20.378c17.364 0 31.439 14.076 31.439 31.439v41.526c0 23.025-18.665 41.69-41.68 41.69h-.108c-9.847 0-18.467 7.087-19.872 16.834-1.767 12.25 7.685 22.743 19.58 22.743h25.478c18.972 0 34.343 15.381 34.343 34.343z" fill="#9bd069"/><g fill="#6ec17d"><path d="m92.684 245h1.021c9.988 0 18.085-8.097 18.085-18.085v-55.372c0-25.388 20.582-45.97 45.97-45.97h-20.473c-25.388 0-45.97 20.581-45.97 45.97v55.372c0 6.343-3.271 11.913-8.212 15.141 2.73 1.857 6.027 2.944 9.579 2.944z"/><path d="m291.961 80.528h-20.473c-24.878 0-45.045 20.167-45.045 45.045h20.473c-.001-24.878 20.167-45.045 45.045-45.045z"/><path d="m372.478 49.56v-18.12c0-17.348 14.051-31.413 31.392-31.438-.016 0-.032-.001-.047-.001h-20.378c-17.364 0-31.439 14.076-31.439 31.44v18.119c0 17.103-13.865 30.967-30.967 30.967h20.473c17.102.001 30.966-13.864 30.966-30.967z"/><path d="m21.801 379.202v-76.745c0-13.095 10.488-24.191 23.582-24.018 4.425.058 8.427-1.707 11.305-4.595 2.842-2.842 4.597-6.772 4.597-11.102s-1.755-8.26-4.597-11.102c-2.832-2.842-6.752-4.597-11.092-4.597h-4.689c-10.552 0-19.106-8.554-19.106-19.106 0-9.726 7.273-17.736 16.673-18.934-.799-.102-1.607-.172-2.433-.172h-15.607c-10.552 0-19.106 8.554-19.106 19.106 0 10.552 8.554 19.106 19.106 19.106h4.689c4.34 0 8.26 1.755 11.092 4.597 2.842 2.842 4.597 6.772 4.597 11.102s-1.755 8.26-4.597 11.102c-2.878 2.889-6.88 4.654-11.305 4.595-13.094-.173-23.582 10.923-23.582 24.018v76.745c0 17.466 14.159 31.624 31.624 31.624h20.473c-17.465.001-31.624-14.158-31.624-31.624z"/><path d="m357.374 506.366c-3.478-3.489-5.633-8.301-5.633-13.606v-45.076c-11.605 0-22.123-4.71-29.736-12.313-7.603-7.614-12.313-18.121-12.313-29.736v-15.278h-20.473v15.278c0 11.615 4.71 22.123 12.313 29.736 7.614 7.603 18.131 12.313 29.736 12.313v45.076c0 5.305 2.155 10.117 5.633 13.606 3.532 3.522 8.411 5.687 13.805 5.632 3.674-.037 7.071-1.155 9.959-3.016-1.188-.757-2.297-1.626-3.291-2.616z"/><path d="m216.861 464.081c-4.207-4.197-6.803-9.994-6.803-16.397 0-3.776-1.529-7.183-3.991-9.655-2.473-2.473-5.89-4.002-9.656-4.002-4.894 0-9.337-1.98-12.549-5.192-3.201-3.212-5.192-7.644-5.192-12.549v-15.012c0-41.454-33.615-75.069-75.069-75.069-2.447 0-4.783.451-6.958 1.237 35.002 6.369 61.554 36.994 61.554 73.831v15.012c0 4.905 1.991 9.337 5.192 12.549 3.212 3.212 7.655 5.192 12.549 5.192 3.766 0 7.183 1.529 9.656 4.002 2.463 2.473 3.991 5.879 3.991 9.655 0 6.403 2.596 12.2 6.803 16.397 4.268 4.279 10.193 6.891 16.737 6.801 3.54-.049 6.874-.915 9.846-2.409-2.273-1.128-4.336-2.613-6.11-4.391z"/></g><path d="m492.245 293.108c10.176 0 18.426-8.249 18.426-18.426v-75.75c0-10.176-8.249-18.426-18.426-18.426-10.176 0-18.426 8.249-18.426 18.426v75.75c.001 10.176 8.25 18.426 18.426 18.426z" fill="#9bd069"/><path d="m499.277 291.711c-2.165.903-4.546 1.395-7.039 1.395-10.168 0-18.418-8.25-18.418-18.429v-75.746c0-5.089 2.062-9.697 5.397-13.031 3.335-3.335 7.942-5.397 13.021-5.397 2.493 0 4.874.493 7.039 1.396-2.257.934-4.289 2.298-5.992 4.002-3.335 3.335-5.397 7.942-5.397 13.031v75.746c-.001 7.685 4.699 14.273 11.389 17.033z" fill="#6ec17d"/><g><path d="m339.922 123.452c-.668 30.019-15.526 56.539-38.136 73.114-18.808 13.788-29.696 35.901-29.696 59.221 0 14.221-11.638 26.2-25.857 25.929-13.778-.263-24.859-11.507-24.859-25.348v-.577c0-23.392-11.024-45.472-29.861-59.341-23.05-16.971-38.005-44.299-38.005-75.113 0-51.934 42.464-93.949 94.555-93.22 51.535.723 93.005 43.806 91.859 95.335z" fill="#dd636e"/><circle cx="246.73" cy="121.333" fill="#f6f9f9" r="49.378"/><path d="m261.806 168.36c-4.751 1.525-9.822 2.35-15.078 2.35-27.27 0-49.377-22.107-49.377-49.376 0-27.28 22.107-49.387 49.377-49.387 5.256 0 10.327.825 15.078 2.35-19.891 6.369-34.299 25.013-34.299 47.037 0 22.013 14.408 40.657 34.299 47.026z" fill="#dddaec"/></g></g></svg>